<svg xmlns="http://www.w3.org/2000/svg" xmlns:xlink="http://www.w3.org/1999/xlink" width="1080" zoomAndPan="magnify" viewBox="0 0 810 253.499997" height="338" preserveAspectRatio="xMidYMid meet" version="1.0"><defs><g/><clipPath id="70bce2b24a"><path d="M 16 0 L 809.203125 0 L 809.203125 253 L 16 253 Z M 16 0 " clip-rule="nonzero"/></clipPath><clipPath id="b6986c9981"><rect x="0" width="794" y="0" height="253"/></clipPath></defs><g clip-path="url(#70bce2b24a)"><g transform="matrix(1, 0, 0, 1, 16, 0)"><g clip-path="url(#b6986c9981)"><g fill="#660000" fill-opacity="1"><g transform="translate(0.586659, 205.262338)"><g><path d="M 83.375 -111.796875 C 89.269531 -111.796875 94.078125 -111.054688 97.796875 -109.578125 C 101.515625 -108.109375 104.425781 -106.109375 106.53125 -103.578125 C 108.769531 -100.910156 110.414062 -97.472656 111.46875 -93.265625 C 112.53125 -89.054688 113.0625 -83.375 113.0625 -76.21875 L 113.0625 -19.578125 C 113.0625 -13.679688 114.078125 -9.679688 116.109375 -7.578125 C 118.140625 -5.472656 121.613281 -4.421875 126.53125 -4.421875 L 126.53125 0 C 123.863281 -0.132812 119.863281 -0.304688 114.53125 -0.515625 C 109.195312 -0.734375 103.929688 -0.84375 98.734375 -0.84375 C 93.398438 -0.84375 88.171875 -0.734375 83.046875 -0.515625 C 77.929688 -0.304688 74.039062 -0.132812 71.375 0 L 71.375 -4.421875 C 75.582031 -4.421875 78.523438 -5.472656 80.203125 -7.578125 C 81.890625 -9.679688 82.734375 -13.679688 82.734375 -19.578125 L 82.734375 -85.046875 C 82.734375 -88.554688 82.382812 -91.609375 81.6875 -94.203125 C 80.988281 -96.804688 79.722656 -98.84375 77.890625 -100.3125 C 76.066406 -101.789062 73.332031 -102.53125 69.6875 -102.53125 C 65.894531 -102.53125 62.421875 -101.476562 59.265625 -99.375 C 56.109375 -97.269531 53.582031 -94.351562 51.6875 -90.625 C 49.789062 -86.90625 48.84375 -82.734375 48.84375 -78.109375 L 48.84375 -19.578125 C 48.84375 -13.679688 49.71875 -9.679688 51.46875 -7.578125 C 53.226562 -5.472656 56.144531 -4.421875 60.21875 -4.421875 L 60.21875 0 C 57.6875 -0.132812 54 -0.304688 49.15625 -0.515625 C 44.3125 -0.734375 39.296875 -0.84375 34.109375 -0.84375 C 28.773438 -0.84375 23.300781 -0.734375 17.6875 -0.515625 C 12.070312 -0.304688 7.859375 -0.132812 5.046875 0 L 5.046875 -4.421875 C 9.960938 -4.421875 13.4375 -5.472656 15.46875 -7.578125 C 17.507812 -9.679688 18.53125 -13.679688 18.53125 -19.578125 L 18.53125 -85.890625 C 18.53125 -92.210938 17.582031 -96.878906 15.6875 -99.890625 C 13.789062 -102.910156 10.242188 -104.421875 5.046875 -104.421875 L 5.046875 -108.84375 C 9.546875 -108.425781 13.898438 -108.21875 18.109375 -108.21875 C 24.003906 -108.21875 29.507812 -108.460938 34.625 -108.953125 C 39.75 -109.441406 44.488281 -110.175781 48.84375 -111.15625 L 48.84375 -92.21875 C 52.351562 -99.375 57.125 -104.425781 63.15625 -107.375 C 69.195312 -110.320312 75.9375 -111.796875 83.375 -111.796875 Z M 83.375 -111.796875 "/></g></g></g><g fill="#660000" fill-opacity="1"><g transform="translate(161.428027, 205.262338)"><g><path d="M 34.109375 1.46875 C 27.785156 1.46875 22.519531 0.273438 18.3125 -2.109375 C 14.101562 -4.492188 11.015625 -7.6875 9.046875 -11.6875 C 7.085938 -15.6875 6.109375 -20.070312 6.109375 -24.84375 C 6.109375 -30.875 7.472656 -35.785156 10.203125 -39.578125 C 12.941406 -43.367188 16.488281 -46.457031 20.84375 -48.84375 C 25.195312 -51.226562 29.789062 -53.191406 34.625 -54.734375 C 39.46875 -56.273438 44.097656 -57.78125 48.515625 -59.25 C 52.941406 -60.726562 56.523438 -62.484375 59.265625 -64.515625 C 62.003906 -66.554688 63.375 -69.191406 63.375 -72.421875 L 63.375 -88.84375 C 63.375 -92.488281 62.773438 -95.75 61.578125 -98.625 C 60.390625 -101.507812 58.566406 -103.722656 56.109375 -105.265625 C 53.648438 -106.804688 50.457031 -107.578125 46.53125 -107.578125 C 43.71875 -107.578125 40.90625 -107.191406 38.09375 -106.421875 C 35.289062 -105.648438 32.976562 -104.351562 31.15625 -102.53125 C 35.082031 -101.125 38.132812 -98.984375 40.3125 -96.109375 C 42.488281 -93.234375 43.578125 -89.96875 43.578125 -86.3125 C 43.578125 -81.539062 41.925781 -77.75 38.625 -74.9375 C 35.332031 -72.132812 31.441406 -70.734375 26.953125 -70.734375 C 21.898438 -70.734375 18.070312 -72.3125 15.46875 -75.46875 C 12.875 -78.632812 11.578125 -82.460938 11.578125 -86.953125 C 11.578125 -91.023438 12.59375 -94.394531 14.625 -97.0625 C 16.664062 -99.726562 19.507812 -102.253906 23.15625 -104.640625 C 27.082031 -106.878906 31.816406 -108.628906 37.359375 -109.890625 C 42.910156 -111.160156 48.914062 -111.796875 55.375 -111.796875 C 61.820312 -111.796875 67.644531 -111.128906 72.84375 -109.796875 C 78.039062 -108.460938 82.390625 -106.039062 85.890625 -102.53125 C 89.117188 -99.300781 91.222656 -95.332031 92.203125 -90.625 C 93.191406 -85.925781 93.6875 -80 93.6875 -72.84375 L 93.6875 -15.578125 C 93.6875 -12.066406 94.035156 -9.644531 94.734375 -8.3125 C 95.441406 -6.976562 96.632812 -6.3125 98.3125 -6.3125 C 99.582031 -6.3125 100.8125 -6.660156 102 -7.359375 C 103.195312 -8.066406 104.492188 -8.910156 105.890625 -9.890625 L 108 -6.3125 C 105.050781 -3.789062 101.644531 -1.863281 97.78125 -0.53125 C 93.925781 0.800781 89.613281 1.46875 84.84375 1.46875 C 79.644531 1.46875 75.503906 0.734375 72.421875 -0.734375 C 69.335938 -2.210938 67.128906 -4.210938 65.796875 -6.734375 C 64.460938 -9.265625 63.796875 -12.210938 63.796875 -15.578125 C 60.421875 -10.242188 56.347656 -6.066406 51.578125 -3.046875 C 46.804688 -0.0351562 40.984375 1.46875 34.109375 1.46875 Z M 49.046875 -12 C 51.859375 -12 54.421875 -12.664062 56.734375 -14 C 59.054688 -15.332031 61.269531 -17.539062 63.375 -20.625 L 63.375 -63.796875 C 62.101562 -61.691406 60.34375 -59.796875 58.09375 -58.109375 C 55.851562 -56.421875 53.46875 -54.695312 50.9375 -52.9375 C 48.414062 -51.1875 46 -49.257812 43.6875 -47.15625 C 41.375 -45.050781 39.515625 -42.453125 38.109375 -39.359375 C 36.703125 -36.273438 36 -32.5625 36 -28.21875 C 36 -22.738281 37.191406 -18.664062 39.578125 -16 C 41.960938 -13.332031 45.117188 -12 49.046875 -12 Z M 49.046875 -12 "/></g></g></g><g fill="#660000" fill-opacity="1"><g transform="translate(302.05897, 205.262338)"><g><path d="M 77.46875 -111.796875 C 81.96875 -111.796875 85.617188 -110.847656 88.421875 -108.953125 C 91.234375 -107.054688 93.304688 -104.632812 94.640625 -101.6875 C 95.972656 -98.738281 96.640625 -95.648438 96.640625 -92.421875 C 96.640625 -87.234375 95.128906 -82.988281 92.109375 -79.6875 C 89.085938 -76.382812 85.125 -74.734375 80.21875 -74.734375 C 75.300781 -74.734375 71.472656 -75.960938 68.734375 -78.421875 C 66.003906 -80.878906 64.640625 -84.144531 64.640625 -88.21875 C 64.640625 -92.144531 65.515625 -95.40625 67.265625 -98 C 69.015625 -100.59375 71.222656 -102.804688 73.890625 -104.640625 C 71.929688 -105.191406 69.96875 -105.117188 68 -104.421875 C 65.332031 -104.003906 62.804688 -102.914062 60.421875 -101.15625 C 58.035156 -99.40625 56 -97.226562 54.3125 -94.625 C 52.632812 -92.03125 51.300781 -89.222656 50.3125 -86.203125 C 49.332031 -83.191406 48.84375 -80.28125 48.84375 -77.46875 L 48.84375 -21.6875 C 48.84375 -14.945312 50.488281 -10.382812 53.78125 -8 C 57.082031 -5.613281 62.035156 -4.421875 68.640625 -4.421875 L 68.640625 0 C 65.410156 -0.132812 60.707031 -0.304688 54.53125 -0.515625 C 48.351562 -0.734375 41.894531 -0.84375 35.15625 -0.84375 C 29.539062 -0.84375 23.851562 -0.734375 18.09375 -0.515625 C 12.34375 -0.304688 7.992188 -0.132812 5.046875 0 L 5.046875 -4.421875 C 9.960938 -4.421875 13.4375 -5.472656 15.46875 -7.578125 C 17.507812 -9.679688 18.53125 -13.679688 18.53125 -19.578125 L 18.53125 -85.890625 C 18.53125 -92.210938 17.582031 -96.878906 15.6875 -99.890625 C 13.789062 -102.910156 10.242188 -104.421875 5.046875 -104.421875 L 5.046875 -108.84375 C 9.546875 -108.425781 13.898438 -108.21875 18.109375 -108.21875 C 24.003906 -108.21875 29.507812 -108.460938 34.625 -108.953125 C 39.75 -109.441406 44.488281 -110.175781 48.84375 -111.15625 L 48.84375 -91.578125 C 50.53125 -95.367188 52.773438 -98.804688 55.578125 -101.890625 C 58.390625 -104.984375 61.617188 -107.40625 65.265625 -109.15625 C 68.910156 -110.914062 72.976562 -111.796875 77.46875 -111.796875 Z M 77.46875 -111.796875 "/></g></g></g><g fill="#660000" fill-opacity="1"><g transform="translate(431.953067, 205.262338)"><g><path d="M 106.734375 -108.84375 L 106.734375 -104.640625 C 104.066406 -103.929688 101.539062 -102.28125 99.15625 -99.6875 C 96.769531 -97.09375 94.457031 -92.707031 92.21875 -86.53125 L 61.46875 0.421875 C 59.226562 0.273438 56.945312 0.203125 54.625 0.203125 C 52.3125 0.203125 50.035156 0.273438 47.796875 0.421875 L 10.3125 -92.640625 C 8.070312 -98.109375 5.863281 -101.4375 3.6875 -102.625 C 1.507812 -103.820312 -0.347656 -104.421875 -1.890625 -104.421875 L -1.890625 -108.84375 C 2.597656 -108.5625 7.265625 -108.316406 12.109375 -108.109375 C 16.953125 -107.898438 22.25 -107.796875 28 -107.796875 C 32.351562 -107.796875 36.945312 -107.898438 41.78125 -108.109375 C 46.625 -108.316406 51.15625 -108.5625 55.375 -108.84375 L 55.375 -104.421875 C 52.425781 -104.421875 49.789062 -104.28125 47.46875 -104 C 45.15625 -103.71875 43.578125 -102.804688 42.734375 -101.265625 C 41.890625 -99.722656 42.03125 -96.988281 43.15625 -93.0625 L 67.796875 -27.796875 L 65.6875 -24.84375 L 82.3125 -70.953125 C 84.976562 -78.523438 86.097656 -84.734375 85.671875 -89.578125 C 85.253906 -94.421875 83.710938 -98.070312 81.046875 -100.53125 C 78.378906 -102.988281 74.800781 -104.359375 70.3125 -104.640625 L 70.3125 -108.84375 C 72.414062 -108.707031 74.695312 -108.601562 77.15625 -108.53125 C 79.613281 -108.457031 82 -108.382812 84.3125 -108.3125 C 86.632812 -108.25 88.707031 -108.21875 90.53125 -108.21875 C 93.332031 -108.21875 96.273438 -108.285156 99.359375 -108.421875 C 102.453125 -108.566406 104.910156 -108.707031 106.734375 -108.84375 Z M 106.734375 -108.84375 "/></g></g></g><g fill="#660000" fill-opacity="1"><g transform="translate(570.478708, 205.262338)"><g><path d="M 32.421875 -163.15625 C 38.316406 -163.15625 42.984375 -161.71875 46.421875 -158.84375 C 49.859375 -155.96875 51.578125 -152.003906 51.578125 -146.953125 C 51.578125 -141.898438 49.859375 -137.929688 46.421875 -135.046875 C 42.984375 -132.171875 38.316406 -130.734375 32.421875 -130.734375 C 26.523438 -130.734375 21.859375 -132.171875 18.421875 -135.046875 C 14.984375 -137.929688 13.265625 -141.898438 13.265625 -146.953125 C 13.265625 -152.003906 14.984375 -155.96875 18.421875 -158.84375 C 21.859375 -161.71875 26.523438 -163.15625 32.421875 -163.15625 Z M 48.84375 -111.15625 L 48.84375 -19.578125 C 48.84375 -13.679688 49.859375 -9.679688 51.890625 -7.578125 C 53.929688 -5.472656 57.40625 -4.421875 62.3125 -4.421875 L 62.3125 0 C 59.789062 -0.132812 55.863281 -0.304688 50.53125 -0.515625 C 45.195312 -0.734375 39.789062 -0.84375 34.3125 -0.84375 C 28.84375 -0.84375 23.300781 -0.734375 17.6875 -0.515625 C 12.070312 -0.304688 7.859375 -0.132812 5.046875 0 L 5.046875 -4.421875 C 9.960938 -4.421875 13.4375 -5.472656 15.46875 -7.578125 C 17.507812 -9.679688 18.53125 -13.679688 18.53125 -19.578125 L 18.53125 -85.890625 C 18.53125 -92.210938 17.582031 -96.878906 15.6875 -99.890625 C 13.789062 -102.910156 10.242188 -104.421875 5.046875 -104.421875 L 5.046875 -108.84375 C 9.546875 -108.425781 13.898438 -108.21875 18.109375 -108.21875 C 24.003906 -108.21875 29.507812 -108.460938 34.625 -108.953125 C 39.75 -109.441406 44.488281 -110.175781 48.84375 -111.15625 Z M 48.84375 -111.15625 "/></g></g></g><g fill="#660000" fill-opacity="1"><g transform="translate(668.373006, 205.262338)"><g><path d="M 34.109375 1.46875 C 27.785156 1.46875 22.519531 0.273438 18.3125 -2.109375 C 14.101562 -4.492188 11.015625 -7.6875 9.046875 -11.6875 C 7.085938 -15.6875 6.109375 -20.070312 6.109375 -24.84375 C 6.109375 -30.875 7.472656 -35.785156 10.203125 -39.578125 C 12.941406 -43.367188 16.488281 -46.457031 20.84375 -48.84375 C 25.195312 -51.226562 29.789062 -53.191406 34.625 -54.734375 C 39.46875 -56.273438 44.097656 -57.78125 48.515625 -59.25 C 52.941406 -60.726562 56.523438 -62.484375 59.265625 -64.515625 C 62.003906 -66.554688 63.375 -69.191406 63.375 -72.421875 L 63.375 -88.84375 C 63.375 -92.488281 62.773438 -95.75 61.578125 -98.625 C 60.390625 -101.507812 58.566406 -103.722656 56.109375 -105.265625 C 53.648438 -106.804688 50.457031 -107.578125 46.53125 -107.578125 C 43.71875 -107.578125 40.90625 -107.191406 38.09375 -106.421875 C 35.289062 -105.648438 32.976562 -104.351562 31.15625 -102.53125 C 35.082031 -101.125 38.132812 -98.984375 40.3125 -96.109375 C 42.488281 -93.234375 43.578125 -89.96875 43.578125 -86.3125 C 43.578125 -81.539062 41.925781 -77.75 38.625 -74.9375 C 35.332031 -72.132812 31.441406 -70.734375 26.953125 -70.734375 C 21.898438 -70.734375 18.070312 -72.3125 15.46875 -75.46875 C 12.875 -78.632812 11.578125 -82.460938 11.578125 -86.953125 C 11.578125 -91.023438 12.59375 -94.394531 14.625 -97.0625 C 16.664062 -99.726562 19.507812 -102.253906 23.15625 -104.640625 C 27.082031 -106.878906 31.816406 -108.628906 37.359375 -109.890625 C 42.910156 -111.160156 48.914062 -111.796875 55.375 -111.796875 C 61.820312 -111.796875 67.644531 -111.128906 72.84375 -109.796875 C 78.039062 -108.460938 82.390625 -106.039062 85.890625 -102.53125 C 89.117188 -99.300781 91.222656 -95.332031 92.203125 -90.625 C 93.191406 -85.925781 93.6875 -80 93.6875 -72.84375 L 93.6875 -15.578125 C 93.6875 -12.066406 94.035156 -9.644531 94.734375 -8.3125 C 95.441406 -6.976562 96.632812 -6.3125 98.3125 -6.3125 C 99.582031 -6.3125 100.8125 -6.660156 102 -7.359375 C 103.195312 -8.066406 104.492188 -8.910156 105.890625 -9.890625 L 108 -6.3125 C 105.050781 -3.789062 101.644531 -1.863281 97.78125 -0.53125 C 93.925781 0.800781 89.613281 1.46875 84.84375 1.46875 C 79.644531 1.46875 75.503906 0.734375 72.421875 -0.734375 C 69.335938 -2.210938 67.128906 -4.210938 65.796875 -6.734375 C 64.460938 -9.265625 63.796875 -12.210938 63.796875 -15.578125 C 60.421875 -10.242188 56.347656 -6.066406 51.578125 -3.046875 C 46.804688 -0.0351562 40.984375 1.46875 34.109375 1.46875 Z M 49.046875 -12 C 51.859375 -12 54.421875 -12.664062 56.734375 -14 C 59.054688 -15.332031 61.269531 -17.539062 63.375 -20.625 L 63.375 -63.796875 C 62.101562 -61.691406 60.34375 -59.796875 58.09375 -58.109375 C 55.851562 -56.421875 53.46875 -54.695312 50.9375 -52.9375 C 48.414062 -51.1875 46 -49.257812 43.6875 -47.15625 C 41.375 -45.050781 39.515625 -42.453125 38.109375 -39.359375 C 36.703125 -36.273438 36 -32.5625 36 -28.21875 C 36 -22.738281 37.191406 -18.664062 39.578125 -16 C 41.960938 -13.332031 45.117188 -12 49.046875 -12 Z M 49.046875 -12 "/></g></g></g></g></g></g></svg>